<svg xmlns="http://www.w3.org/2000/svg" width="18.031" height="18.031" viewBox="0 0 18.031 18.031">
  <defs>
    <style>
      .cls-1 {
        fill-rule: evenodd;
      }
    </style>
  </defs>
  <path id="_" data-name="" class="cls-1" d="M305.737,559.855a0.371,0.371,0,0,0-.376-0.375h-0.75a0.371,0.371,0,0,0-.376.375v4.128h-2.626a0.371,0.371,0,0,0-.376.375v0.751a0.371,0.371,0,0,0,.376.375h3.752a0.371,0.371,0,0,0,.376-0.375v-5.254Zm4.878,4.128a6.38,6.38,0,1,1-6.38-6.38A6.386,6.386,0,0,1,310.615,563.983Zm2.627,0a9.007,9.007,0,1,0-9.007,9.006A9.009,9.009,0,0,0,313.242,563.983Z" transform="translate(-295.219 -554.969)"/>
</svg>
