<svg xmlns="http://www.w3.org/2000/svg" width="13.907" height="13.938" viewBox="0 0 13.907 13.938">
  <defs>
    <style>
      .cls-1 {
        fill-rule: evenodd;
      }
    </style>
  </defs>
  <path id="_" data-name="ï€" class="cls-1" d="M311.949,806.621a1.136,1.136,0,0,0-.328-0.8l-3.445-3.445,3.445-3.445a1.132,1.132,0,0,0,0-1.594l-1.594-1.594a1.131,1.131,0,0,0-1.593,0l-3.446,3.445-3.445-3.445a1.132,1.132,0,0,0-1.594,0l-1.594,1.594a1.132,1.132,0,0,0,0,1.594l3.446,3.445-3.446,3.445a1.132,1.132,0,0,0,0,1.594l1.594,1.594a1.132,1.132,0,0,0,1.594,0l3.445-3.446,3.446,3.446a1.131,1.131,0,0,0,1.593,0l1.594-1.594A1.136,1.136,0,0,0,311.949,806.621Z" transform="translate(-298.031 -795.406)"/>
</svg>
