<svg xmlns="http://www.w3.org/2000/svg" width="18.25" height="15.75" viewBox="0 0 18.25 15.75">
  <defs>
    <style>
      .cls-1 {
        fill-rule: evenodd;
      }
    </style>
  </defs>
  <path id="_" data-name="ï«" class="cls-1" d="M302.976,689.948a0.653,0.653,0,0,0,.76.609h2.281a0.653,0.653,0,0,0,.76-0.609v-8.391h-3.8v8.391Zm5.417-9.891a1.125,1.125,0,1,0,0-2.25,1.1,1.1,0,0,0-.82.363l-1.5,1.887h2.317Zm-8.173-1.125a1.133,1.133,0,0,0,1.14,1.125h2.305l-1.485-1.887a1.1,1.1,0,0,0-.82-0.363A1.133,1.133,0,0,0,300.22,678.932Zm-4.467,3a0.373,0.373,0,0,1,.38-0.375h5.227a2.625,2.625,0,1,1,0-5.25,2.545,2.545,0,0,1,2,.9l1.521,1.934,1.52-1.934a2.545,2.545,0,0,1,2-.9,2.625,2.625,0,1,1,0,5.25h5.227a0.373,0.373,0,0,1,.38.375v3.75a0.373,0.373,0,0,1-.38.375h-1.141v4.875a1.133,1.133,0,0,1-1.14,1.125H298.414a1.133,1.133,0,0,1-1.14-1.125v-4.875h-1.141a0.373,0.373,0,0,1-.38-0.375v-3.75Z" transform="translate(-295.75 -676.312)"/>
</svg>
