<svg xmlns="http://www.w3.org/2000/svg" width="21" height="18" viewBox="0 0 21 18">
  <defs>
    <style>
      .cls-1 {
        fill-rule: evenodd;
      }
    </style>
  </defs>
  <path id="_" data-name="ïµ" class="cls-1" d="M314.738,932.629c0-4.149-4.7-7.5-10.5-7.5s-10.5,3.363-10.5,7.5c0,2.379,1.547,4.5,3.961,5.871a7.433,7.433,0,0,1-2.133,3.492,0.805,0.805,0,0,0-.316.68v0.012a0.541,0.541,0,0,0,.562.445,9.659,9.659,0,0,0,1.336-.258,12.849,12.849,0,0,0,5.391-2.836,16.048,16.048,0,0,0,1.7.094C310.039,940.129,314.738,936.777,314.738,932.629Z" transform="translate(-293.75 -925.125)"/>
</svg>
