<svg xmlns="http://www.w3.org/2000/svg" width="10.907" height="21" viewBox="0 0 10.907 21">
  <defs>
    <style>
      .cls-1 {
        fill-rule: evenodd;
      }
    </style>
  </defs>
  <path id="_" data-name="" class="cls-1" d="M310.2,629.016c0-2.825-2.437-3.774-4.594-4.606-1.664-.644-3.093-1.195-3.093-2.437,0-1.067,1.031-1.8,2.519-1.8a5.391,5.391,0,0,1,3.188,1.266,0.388,0.388,0,0,0,.316.082,0.348,0.348,0,0,0,.27-0.188l0.949-1.711a0.375,0.375,0,0,0-.059-0.445A6.35,6.35,0,0,0,306,617.566V615.5a0.37,0.37,0,0,0-.375-0.375h-1.582a0.378,0.378,0,0,0-.375.375v2.109c-2.449.469-4.137,2.25-4.137,4.407,0,2.941,2.625,4,4.735,4.828,1.582,0.632,2.964,1.183,2.964,2.308a2.127,2.127,0,0,1-2.39,1.934,6.156,6.156,0,0,1-3.739-1.582,0.32,0.32,0,0,0-.281-0.106,0.382,0.382,0,0,0-.269.141l-1.207,1.582a0.387,0.387,0,0,0,.023.48,7.418,7.418,0,0,0,4.3,2.1v2.051a0.378,0.378,0,0,0,.375.375h1.582a0.37,0.37,0,0,0,.375-0.375V633.7A4.752,4.752,0,0,0,310.2,629.016Z" transform="translate(-299.281 -615.125)"/>
</svg>
