<svg xmlns="http://www.w3.org/2000/svg" width="18.156" height="13.938" viewBox="0 0 18.156 13.938">
  <defs>
    <style>
      .cls-1 {
        fill-rule: evenodd;
      }
    </style>
  </defs>
  <path id="_" data-name="" class="cls-1" d="M313.32,857.762a1.136,1.136,0,0,0-.328-0.8l-1.594-1.594a1.131,1.131,0,0,0-1.593,0l-7.688,7.7-3.445-3.457a1.132,1.132,0,0,0-1.594,0l-1.594,1.594a1.132,1.132,0,0,0,0,1.594l4.243,4.242,1.593,1.594a1.132,1.132,0,0,0,1.594,0l1.594-1.594,8.484-8.484A1.136,1.136,0,0,0,313.32,857.762Z" transform="translate(-295.156 -855.031)"/>
</svg>
