<svg xmlns="http://www.w3.org/2000/svg" width="20.062" height="16.125" viewBox="0 0 20.062 16.125">
  <defs>
    <style>
      .cls-1 {
        fill-rule: evenodd;
      }
    </style>
  </defs>
  <path id="_" data-name=" " class="cls-1" d="M307.571,751.591a1.486,1.486,0,1,0,1.486-1.465A1.486,1.486,0,0,0,307.571,751.591Zm4.457-5.862v-0.344a0.685,0.685,0,0,0-.1-0.252l-2.263-2.232a0.7,0.7,0,0,0-.256-0.1h-1.834v2.932h4.457Zm-14.857,5.862a1.486,1.486,0,1,0,1.486-1.465A1.486,1.486,0,0,0,297.171,751.591ZM294.2,739.133a0.744,0.744,0,0,1,.743-0.733h11.886a0.743,0.743,0,0,1,.743.733v2.2h1.857a2.049,2.049,0,0,1,1.266.515l2.3,2.267a3.035,3.035,0,0,1,.522,2.348v3.664a0.743,0.743,0,0,1,.743.733c0,0.847-.905.732-1.486,0.732h-0.743a2.972,2.972,0,0,1-5.943,0h-4.457a2.972,2.972,0,0,1-5.943,0c-0.58,0-1.486.115-1.486-.732V739.133Z" transform="translate(-294.188 -738.406)"/>
</svg>
